<svg xmlns="http://www.w3.org/2000/svg" xmlns:xlink="http://www.w3.org/1999/xlink" width="300" zoomAndPan="magnify" viewBox="0 0 224.87999 225" height="300" preserveAspectRatio="xMidYMid meet" version="1.0"><defs><clipPath id="c5f4482115"><path d="M 0 0.0585938 L 224.761719 0.0585938 L 224.761719 224.9375 L 0 224.9375 Z M 0 0.0585938 " clip-rule="nonzero"/></clipPath><clipPath id="789b4a18e5"><path d="M 75.195312 25 L 149.40625 25 L 149.40625 200 L 75.195312 200 Z M 75.195312 25 " clip-rule="nonzero"/></clipPath></defs><g clip-path="url(#c5f4482115)"><path fill="#d9d9d9" d="M 224.832031 112.476562 C 224.832031 114.316406 224.789062 116.15625 224.699219 117.992188 C 224.605469 119.832031 224.472656 121.664062 224.292969 123.496094 C 224.113281 125.328125 223.886719 127.152344 223.617188 128.972656 C 223.347656 130.792969 223.03125 132.605469 222.671875 134.40625 C 222.3125 136.210938 221.910156 138.007812 221.464844 139.792969 C 221.015625 141.578125 220.527344 143.347656 219.992188 145.109375 C 219.457031 146.871094 218.882812 148.617188 218.261719 150.347656 C 217.640625 152.082031 216.980469 153.796875 216.277344 155.496094 C 215.570312 157.195312 214.828125 158.878906 214.039062 160.539062 C 213.253906 162.203125 212.425781 163.847656 211.558594 165.46875 C 210.691406 167.09375 209.785156 168.691406 208.839844 170.269531 C 207.894531 171.847656 206.910156 173.402344 205.886719 174.933594 C 204.867188 176.460938 203.804688 177.964844 202.710938 179.441406 C 201.613281 180.921875 200.484375 182.371094 199.316406 183.792969 C 198.148438 185.214844 196.945312 186.609375 195.710938 187.972656 C 194.476562 189.335938 193.207031 190.667969 191.90625 191.96875 C 190.605469 193.269531 189.273438 194.535156 187.910156 195.773438 C 186.546875 197.007812 185.15625 198.207031 183.734375 199.375 C 182.3125 200.542969 180.859375 201.675781 179.382812 202.769531 C 177.90625 203.867188 176.402344 204.925781 174.871094 205.949219 C 173.34375 206.96875 171.789062 207.953125 170.210938 208.898438 C 168.632812 209.84375 167.03125 210.75 165.410156 211.617188 C 163.785156 212.488281 162.144531 213.3125 160.480469 214.101562 C 158.816406 214.886719 157.136719 215.632812 155.4375 216.335938 C 153.738281 217.039062 152.019531 217.703125 150.289062 218.320312 C 148.554688 218.941406 146.808594 219.519531 145.050781 220.050781 C 143.289062 220.585938 141.515625 221.078125 139.730469 221.523438 C 137.945312 221.972656 136.152344 222.375 134.347656 222.734375 C 132.542969 223.09375 130.730469 223.40625 128.910156 223.675781 C 127.089844 223.945312 125.265625 224.171875 123.433594 224.351562 C 121.605469 224.53125 119.769531 224.667969 117.933594 224.757812 C 116.09375 224.847656 114.257812 224.894531 112.417969 224.894531 C 110.578125 224.894531 108.738281 224.847656 106.902344 224.757812 C 105.0625 224.667969 103.230469 224.53125 101.398438 224.351562 C 99.566406 224.171875 97.742188 223.945312 95.921875 223.675781 C 94.101562 223.40625 92.289062 223.09375 90.484375 222.734375 C 88.679688 222.375 86.886719 221.972656 85.101562 221.523438 C 83.316406 221.078125 81.542969 220.585938 79.785156 220.050781 C 78.023438 219.519531 76.277344 218.941406 74.542969 218.320312 C 72.8125 217.703125 71.097656 217.039062 69.398438 216.335938 C 67.695312 215.632812 66.015625 214.886719 64.351562 214.101562 C 62.6875 213.3125 61.046875 212.488281 59.421875 211.617188 C 57.800781 210.75 56.199219 209.84375 54.621094 208.898438 C 53.042969 207.953125 51.492188 206.96875 49.960938 205.949219 C 48.429688 204.925781 46.929688 203.867188 45.449219 202.769531 C 43.972656 201.675781 42.523438 200.542969 41.101562 199.375 C 39.679688 198.207031 38.285156 197.007812 36.921875 195.773438 C 35.558594 194.535156 34.226562 193.269531 32.925781 191.96875 C 31.625 190.667969 30.355469 189.335938 29.121094 187.972656 C 27.886719 186.609375 26.683594 185.214844 25.515625 183.792969 C 24.351562 182.371094 23.21875 180.921875 22.121094 179.441406 C 21.027344 177.964844 19.96875 176.460938 18.945312 174.933594 C 17.921875 173.402344 16.941406 171.847656 15.992188 170.269531 C 15.046875 168.691406 14.140625 167.09375 13.273438 165.46875 C 12.40625 163.847656 11.578125 162.203125 10.792969 160.539062 C 10.007812 158.878906 9.261719 157.195312 8.558594 155.496094 C 7.851562 153.796875 7.191406 152.082031 6.570312 150.347656 C 5.953125 148.617188 5.375 146.871094 4.839844 145.109375 C 4.304688 143.347656 3.816406 141.578125 3.367188 139.792969 C 2.921875 138.007812 2.519531 136.210938 2.160156 134.40625 C 1.800781 132.601562 1.488281 130.792969 1.214844 128.972656 C 0.945312 127.152344 0.722656 125.328125 0.542969 123.496094 C 0.359375 121.664062 0.226562 119.832031 0.136719 117.992188 C 0.046875 116.15625 0 114.316406 0 112.476562 C 0 110.636719 0.046875 108.796875 0.136719 106.960938 C 0.226562 105.121094 0.359375 103.289062 0.542969 101.457031 C 0.722656 99.625 0.945312 97.800781 1.214844 95.980469 C 1.488281 94.160156 1.800781 92.351562 2.160156 90.546875 C 2.519531 88.742188 2.921875 86.945312 3.367188 85.160156 C 3.816406 83.375 4.304688 81.605469 4.839844 79.84375 C 5.375 78.082031 5.953125 76.335938 6.570312 74.605469 C 7.191406 72.871094 7.851562 71.15625 8.558594 69.457031 C 9.261719 67.757812 10.007812 66.074219 10.792969 64.414062 C 11.578125 62.75 12.40625 61.105469 13.273438 59.484375 C 14.140625 57.859375 15.046875 56.261719 15.992188 54.683594 C 16.941406 53.105469 17.921875 51.550781 18.945312 50.019531 C 19.96875 48.492188 21.027344 46.988281 22.121094 45.511719 C 23.21875 44.03125 24.351562 42.582031 25.515625 41.160156 C 26.683594 39.738281 27.886719 38.34375 29.121094 36.980469 C 30.355469 35.617188 31.625 34.285156 32.925781 32.984375 C 34.226562 31.683594 35.558594 30.417969 36.921875 29.179688 C 38.285156 27.945312 39.679688 26.746094 41.101562 25.578125 C 42.523438 24.410156 43.972656 23.277344 45.449219 22.183594 C 46.929688 21.085938 48.429688 20.027344 49.960938 19.003906 C 51.492188 17.984375 53.042969 17 54.621094 16.054688 C 56.199219 15.109375 57.800781 14.203125 59.421875 13.335938 C 61.046875 12.464844 62.6875 11.640625 64.351562 10.851562 C 66.015625 10.066406 67.695312 9.320312 69.398438 8.617188 C 71.097656 7.914062 72.8125 7.25 74.542969 6.632812 C 76.277344 6.011719 78.023438 5.433594 79.785156 4.902344 C 81.542969 4.367188 83.316406 3.875 85.101562 3.429688 C 86.886719 2.980469 88.679688 2.578125 90.484375 2.21875 C 92.289062 1.859375 94.101562 1.546875 95.921875 1.277344 C 97.742188 1.007812 99.566406 0.78125 101.398438 0.601562 C 103.230469 0.421875 105.0625 0.285156 106.902344 0.195312 C 108.738281 0.105469 110.578125 0.0585938 112.417969 0.0585938 C 114.257812 0.0585938 116.09375 0.105469 117.933594 0.195312 C 119.769531 0.285156 121.605469 0.421875 123.433594 0.601562 C 125.265625 0.78125 127.089844 1.007812 128.910156 1.277344 C 130.730469 1.546875 132.542969 1.859375 134.347656 2.21875 C 136.152344 2.578125 137.945312 2.980469 139.730469 3.429688 C 141.515625 3.875 143.289062 4.367188 145.050781 4.902344 C 146.808594 5.433594 148.554688 6.011719 150.289062 6.632812 C 152.019531 7.25 153.738281 7.914062 155.4375 8.617188 C 157.136719 9.320312 158.816406 10.066406 160.480469 10.851562 C 162.144531 11.640625 163.785156 12.464844 165.410156 13.335938 C 167.03125 14.203125 168.632812 15.109375 170.210938 16.054688 C 171.789062 17 173.34375 17.984375 174.871094 19.003906 C 176.402344 20.027344 177.90625 21.085938 179.382812 22.183594 C 180.859375 23.277344 182.3125 24.410156 183.734375 25.578125 C 185.15625 26.746094 186.546875 27.945312 187.910156 29.179688 C 189.273438 30.417969 190.605469 31.683594 191.90625 32.984375 C 193.207031 34.285156 194.476562 35.617188 195.710938 36.980469 C 196.945312 38.34375 198.148438 39.738281 199.316406 41.160156 C 200.484375 42.582031 201.613281 44.03125 202.710938 45.511719 C 203.804688 46.988281 204.867188 48.492188 205.886719 50.019531 C 206.910156 51.550781 207.894531 53.105469 208.839844 54.683594 C 209.785156 56.261719 210.691406 57.859375 211.558594 59.484375 C 212.425781 61.105469 213.253906 62.75 214.039062 64.414062 C 214.828125 66.074219 215.570312 67.757812 216.277344 69.457031 C 216.980469 71.15625 217.640625 72.871094 218.261719 74.605469 C 218.882812 76.335938 219.457031 78.082031 219.992188 79.84375 C 220.527344 81.605469 221.015625 83.375 221.464844 85.160156 C 221.910156 86.945312 222.3125 88.742188 222.671875 90.546875 C 223.03125 92.351562 223.347656 94.160156 223.617188 95.980469 C 223.886719 97.800781 224.113281 99.625 224.292969 101.457031 C 224.472656 103.289062 224.609375 105.121094 224.699219 106.960938 C 224.789062 108.796875 224.832031 110.636719 224.832031 112.476562 Z M 224.832031 112.476562 " fill-opacity="1" fill-rule="nonzero"/></g><g clip-path="url(#789b4a18e5)"><path fill="#3f3423" d="M 149.640625 93.03125 L 114.765625 93.03125 L 148.300781 25.292969 L 110.070312 25.292969 L 75.195312 113.148438 L 107.386719 113.148438 L 83.246094 199.667969 Z M 149.640625 93.03125 " fill-opacity="1" fill-rule="nonzero"/></g></svg>