<svg xmlns="http://www.w3.org/2000/svg" xmlns:xlink="http://www.w3.org/1999/xlink" width="540" zoomAndPan="magnify" viewBox="0 0 404.88 149.999998" height="200" preserveAspectRatio="xMidYMid meet" version="1.0"><defs><g/><clipPath id="38bfa13d05"><path d="M 15 18.761719 L 187 18.761719 L 187 134.839844 L 15 134.839844 Z M 15 18.761719 " clip-rule="nonzero"/></clipPath></defs><g clip-path="url(#38bfa13d05)"><path fill="#707688" d="M 100.796875 18.761719 C 61.800781 18.761719 28.5 43.015625 15.007812 77.253906 C 28.5 111.488281 61.800781 135.746094 100.796875 135.746094 C 139.789062 135.746094 173.09375 111.488281 186.585938 77.253906 C 173.09375 43.015625 139.828125 18.761719 100.796875 18.761719 Z M 100.796875 116.246094 C 79.269531 116.246094 61.800781 98.777344 61.800781 77.253906 C 61.800781 55.726562 79.269531 38.257812 100.796875 38.257812 C 122.320312 38.257812 139.789062 55.726562 139.789062 77.253906 C 139.789062 98.777344 122.320312 116.246094 100.796875 116.246094 Z M 100.796875 53.855469 C 87.890625 53.855469 77.398438 64.34375 77.398438 77.253906 C 77.398438 90.160156 87.890625 100.648438 100.796875 100.648438 C 113.703125 100.648438 124.191406 90.160156 124.191406 77.253906 C 124.191406 64.34375 113.703125 53.855469 100.796875 53.855469 Z M 100.796875 53.855469 " fill-opacity="1" fill-rule="nonzero"/></g><g fill="#dee1eb" fill-opacity="1"><g transform="translate(119.480485, 59.370663)"><g><path d="M 62.15625 -46.730469 C 60.433594 -39.242188 56.464844 -25.3125 50.175781 -4.941406 C 43.210938 -28.234375 39.089844 -42.160156 37.816406 -46.730469 L 31.828125 -46.730469 C 27.335938 -30.480469 23.214844 -16.550781 19.472656 -4.941406 C 13.105469 -25.238281 8.910156 -39.167969 6.738281 -46.730469 L 0.898438 -46.730469 C 7.113281 -28.382812 12.28125 -12.804688 16.550781 -0.0742188 L 22.167969 -0.0742188 C 27.632812 -16.925781 31.828125 -29.730469 34.746094 -38.417969 C 40.515625 -20.820312 44.707031 -8.085938 47.253906 -0.0742188 L 52.871094 -0.0742188 C 62.082031 -27.859375 67.324219 -43.359375 68.597656 -46.730469 Z M 62.15625 -46.730469 "/></g></g></g><g fill="#dee1eb" fill-opacity="1"><g transform="translate(189.347298, 59.370663)"><g><path d="M 9.511719 0.0742188 C 9.285156 -4.867188 9.210938 -9.734375 9.210938 -14.601562 C 9.210938 -19.472656 9.285156 -24.1875 9.511719 -28.980469 L 4.566406 -28.980469 C 4.792969 -24.414062 4.867188 -19.769531 4.867188 -14.902344 C 4.867188 -10.035156 4.792969 -5.015625 4.566406 0.0742188 Z M 10.859375 -38.117188 C 10.859375 -39.988281 9.0625 -41.710938 7.1875 -41.710938 C 5.390625 -41.710938 3.667969 -39.988281 3.667969 -38.117188 C 3.667969 -36.246094 5.390625 -34.597656 7.1875 -34.597656 C 9.0625 -34.597656 10.859375 -36.320312 10.859375 -38.117188 Z M 10.859375 -38.117188 "/></g></g></g><g fill="#dee1eb" fill-opacity="1"><g transform="translate(203.425494, 59.370663)"><g><path d="M 4.566406 -44.933594 C 4.941406 -40.664062 5.09375 -34.148438 5.015625 -25.460938 C 5.015625 -13.703125 4.941406 -5.167969 4.71875 0 L 9.585938 0 C 9.585938 0.523438 9.511719 -2.996094 9.4375 -10.558594 C 9.359375 -17.972656 9.285156 -23.140625 9.285156 -26.136719 C 9.359375 -34.449219 9.4375 -40.664062 9.660156 -44.933594 Z M 4.566406 -44.933594 "/></g></g></g><g fill="#dee1eb" fill-opacity="1"><g transform="translate(217.65346, 59.370663)"><g><path d="M 4.566406 -44.933594 C 4.941406 -40.664062 5.09375 -34.148438 5.015625 -25.460938 C 5.015625 -13.703125 4.941406 -5.167969 4.71875 0 L 9.585938 0 C 9.585938 0.523438 9.511719 -2.996094 9.4375 -10.558594 C 9.359375 -17.972656 9.285156 -23.140625 9.285156 -26.136719 C 9.359375 -34.449219 9.4375 -40.664062 9.660156 -44.933594 Z M 4.566406 -44.933594 "/></g></g></g><g fill="#dee1eb" fill-opacity="1"><g transform="translate(231.881426, 59.370663)"><g><path d="M 9.511719 0.0742188 C 9.285156 -4.867188 9.210938 -9.734375 9.210938 -14.601562 C 9.210938 -19.472656 9.285156 -24.1875 9.511719 -28.980469 L 4.566406 -28.980469 C 4.792969 -24.414062 4.867188 -19.769531 4.867188 -14.902344 C 4.867188 -10.035156 4.792969 -5.015625 4.566406 0.0742188 Z M 10.859375 -38.117188 C 10.859375 -39.988281 9.0625 -41.710938 7.1875 -41.710938 C 5.390625 -41.710938 3.667969 -39.988281 3.667969 -38.117188 C 3.667969 -36.246094 5.390625 -34.597656 7.1875 -34.597656 C 9.0625 -34.597656 10.859375 -36.320312 10.859375 -38.117188 Z M 10.859375 -38.117188 "/></g></g></g><g fill="#dee1eb" fill-opacity="1"><g transform="translate(245.959622, 59.370663)"><g><path d="M 20.371094 -17.824219 C 16.699219 -17.222656 13.929688 -16.773438 11.90625 -16.550781 C 9.285156 -16.175781 7.113281 -15.203125 5.542969 -13.703125 C 3.820312 -12.058594 2.996094 -9.960938 2.996094 -7.488281 C 2.996094 -2.996094 6.441406 0.75 11.234375 0.75 C 15.128906 0.675781 18.273438 -0.523438 20.59375 -2.996094 C 21.191406 -0.523438 22.765625 0.675781 25.386719 0.675781 C 26.660156 0.675781 28.082031 -0.226562 29.730469 -1.945312 L 29.730469 -5.992188 C 27.707031 -4.492188 26.585938 -3.746094 26.210938 -3.746094 C 25.386719 -3.746094 24.9375 -4.34375 24.9375 -5.46875 L 24.9375 -20.894531 C 24.9375 -24.113281 23.890625 -26.433594 21.867188 -28.007812 C 20.144531 -29.355469 17.824219 -30.03125 14.976562 -29.957031 C 10.558594 -29.878906 7.039062 -28.308594 4.417969 -25.238281 L 4.417969 -20.742188 C 6.515625 -23.515625 11.160156 -26.0625 14.828125 -26.285156 C 18.496094 -26.511719 20.292969 -24.9375 20.371094 -21.566406 Z M 20.59375 -6.738281 C 19.695312 -5.917969 18.347656 -5.167969 16.476562 -4.34375 C 14.601562 -3.59375 13.179688 -3.21875 12.058594 -3.21875 C 9.285156 -3.21875 7.339844 -5.316406 7.339844 -8.085938 C 7.339844 -10.410156 9.734375 -12.355469 13.03125 -12.878906 C 16.550781 -13.40625 19.097656 -13.703125 20.59375 -13.929688 Z M 20.59375 -6.738281 "/></g></g></g><g fill="#dee1eb" fill-opacity="1"><g transform="translate(277.785345, 59.370663)"><g><path d="M 48.453125 -1.347656 C 48.378906 -2.546875 48.378906 -4.042969 48.378906 -5.839844 C 48.300781 -7.9375 48.300781 -10.859375 48.300781 -14.679688 C 48.300781 -20.519531 47.480469 -24.636719 45.757812 -27.035156 C 44.257812 -29.207031 41.789062 -30.253906 38.269531 -30.253906 C 34 -30.253906 30.40625 -28.757812 27.410156 -25.761719 C 25.984375 -28.757812 23.214844 -30.253906 19.171875 -30.253906 C 15.5 -30.253906 12.355469 -28.90625 9.886719 -26.285156 L 9.960938 -29.054688 L 5.390625 -29.054688 C 5.46875 -27.257812 5.46875 -26.0625 5.542969 -25.460938 C 5.542969 -13.703125 5.46875 -5.167969 5.242188 0 L 10.109375 0 L 10.109375 -22.242188 C 10.785156 -22.992188 11.53125 -23.738281 12.207031 -24.488281 C 13.855469 -25.835938 15.949219 -26.511719 18.496094 -26.433594 C 20.96875 -26.359375 22.617188 -25.011719 23.515625 -22.390625 C 24.039062 -20.820312 24.261719 -18.273438 24.339844 -14.753906 C 24.414062 -13.03125 24.414062 -11.007812 24.339844 -8.761719 C 24.261719 -5.691406 24.261719 -2.769531 24.261719 0 L 29.355469 0 C 29.355469 0.300781 29.28125 -2.246094 29.207031 -5.839844 L 29.207031 -14.679688 C 29.207031 -17.75 28.980469 -20.292969 28.53125 -22.316406 C 30.253906 -23.8125 31.078125 -24.5625 31.152344 -24.636719 C 33.027344 -25.910156 35.121094 -26.511719 37.59375 -26.433594 C 40.066406 -26.359375 41.789062 -25.011719 42.609375 -22.390625 C 43.136719 -20.820312 43.359375 -18.273438 43.433594 -14.753906 C 43.511719 -13.03125 43.511719 -11.007812 43.433594 -8.761719 C 43.359375 -5.691406 43.359375 -2.769531 43.359375 0 L 48.453125 0 Z M 48.453125 -1.347656 "/></g></g></g><g fill="#dee1eb" fill-opacity="1"><g transform="translate(154.286341, 120.767457)"><g><path d="M 42.6875 -22.691406 C 42.6875 -29.957031 40.8125 -35.722656 37.070312 -39.914062 C 33.101562 -44.332031 27.558594 -46.503906 20.292969 -46.503906 L 5.992188 -46.503906 C 6.515625 -44.632812 6.738281 -42.3125 6.816406 -39.539062 C 6.890625 -36.769531 6.890625 -31.378906 6.890625 -23.363281 C 6.890625 -13.929688 6.816406 -8.011719 6.664062 -5.617188 C 6.589844 -3.21875 6.367188 -1.347656 5.992188 0 L 19.769531 0 C 26.433594 0 31.902344 -2.097656 36.171875 -6.367188 C 40.515625 -10.632812 42.6875 -16.027344 42.6875 -22.691406 Z M 37.144531 -22.691406 C 37.144531 -17.523438 35.496094 -13.253906 32.277344 -9.886719 C 29.054688 -6.515625 24.863281 -4.867188 19.695312 -4.867188 L 11.980469 -4.867188 C 11.832031 -13.628906 11.757812 -20.070312 11.757812 -24.039062 C 11.757812 -25.910156 11.757812 -28.832031 11.832031 -32.652344 L 11.832031 -41.261719 L 19.84375 -41.261719 C 31.378906 -41.261719 37.144531 -35.046875 37.144531 -22.691406 Z M 37.144531 -22.691406 "/></g></g></g><g fill="#dee1eb" fill-opacity="1"><g transform="translate(199.965611, 120.767457)"><g><path d="M 17.300781 -29.503906 C 12.730469 -29.503906 9.734375 -28.15625 6.964844 -25.164062 C 4.34375 -22.316406 2.996094 -18.796875 2.921875 -14.601562 C 2.847656 -10.183594 4.195312 -6.589844 6.890625 -3.667969 C 9.585938 -0.824219 13.03125 0.675781 17.222656 0.675781 C 20.96875 0.675781 24.789062 -0.300781 28.757812 -2.847656 L 26.585938 -6.816406 C 23.964844 -4.492188 21.042969 -3.519531 18.121094 -3.519531 C 15.277344 -3.519531 13.179688 -4.34375 10.933594 -6.441406 C 8.613281 -8.613281 7.488281 -11.234375 7.5625 -14.453125 L 7.5625 -14.753906 L 30.253906 -14.753906 C 30.328125 -19.171875 29.28125 -22.691406 27.183594 -25.3125 C 24.9375 -28.082031 21.71875 -29.503906 17.300781 -29.503906 Z M 8.3125 -18.722656 C 9.808594 -22.839844 13.179688 -25.460938 16.851562 -25.460938 C 21.566406 -25.460938 24.261719 -23.214844 24.789062 -18.722656 Z M 8.3125 -18.722656 "/></g></g></g><g fill="#dee1eb" fill-opacity="1"><g transform="translate(232.540173, 120.767457)"><g><path d="M 17.074219 -0.523438 C 20.59375 -2.097656 22.316406 -4.644531 22.316406 -8.164062 C 22.316406 -10.632812 21.34375 -12.804688 19.320312 -14.527344 C 17.75 -15.949219 15.652344 -17 13.179688 -17.671875 C 8.910156 -18.796875 6.816406 -20.21875 6.890625 -21.941406 C 6.964844 -23.066406 7.488281 -23.964844 8.539062 -24.714844 C 9.511719 -25.3125 10.484375 -25.613281 11.609375 -25.613281 C 14.230469 -25.535156 16.699219 -24.863281 19.023438 -23.441406 L 19.023438 -28.457031 C 18.648438 -28.53125 17.449219 -28.757812 15.578125 -29.207031 C 14.078125 -29.582031 12.957031 -29.730469 12.28125 -29.730469 C 9.511719 -29.730469 7.1875 -28.980469 5.46875 -27.558594 C 3.59375 -25.984375 2.621094 -24.039062 2.621094 -21.566406 C 2.621094 -18.945312 3.519531 -17.074219 5.390625 -15.875 C 8.910156 -14.304688 11.683594 -13.179688 13.703125 -12.582031 C 16.625 -11.308594 17.972656 -9.734375 17.824219 -7.863281 C 17.523438 -4.867188 14.679688 -3.21875 11.382812 -3.21875 C 10.859375 -3.21875 10.410156 -3.296875 9.886719 -3.371094 C 6.066406 -4.492188 3.667969 -5.316406 2.695312 -5.992188 L 2.695312 -0.898438 C 5.617188 0 7.863281 0.523438 9.585938 0.597656 C 12.507812 0.824219 14.976562 0.449219 17.074219 -0.523438 Z M 17.074219 -0.523438 "/></g></g></g><g fill="#dee1eb" fill-opacity="1"><g transform="translate(257.476557, 120.767457)"><g><path d="M 34.074219 -2.171875 C 33.398438 -3.96875 33.027344 -5.015625 32.800781 -5.316406 C 32.5 -5.242188 30.777344 -4.042969 30.253906 -4.042969 C 30.179688 -4.042969 30.105469 -4.117188 30.03125 -4.195312 C 30.03125 -15.578125 30.105469 -23.890625 30.328125 -29.054688 L 25.460938 -29.054688 C 25.460938 -28.90625 25.386719 -25.910156 25.3125 -20.144531 C 25.238281 -13.855469 25.164062 -9.585938 25.085938 -7.339844 L 22.617188 -5.09375 C 20.742188 -3.746094 18.496094 -3.070312 15.949219 -3.144531 C 13.480469 -3.21875 11.832031 -4.566406 10.933594 -7.1875 C 10.410156 -8.761719 10.183594 -11.308594 10.109375 -14.828125 C 10.035156 -16.625 10.109375 -18.496094 10.183594 -20.519531 C 10.410156 -23.664062 10.484375 -26.511719 10.558594 -29.054688 L 5.46875 -29.054688 C 5.46875 -29.207031 5.46875 -28.832031 5.390625 -27.859375 C 5.316406 -26.734375 5.316406 -25.3125 5.316406 -23.589844 C 5.242188 -20.96875 5.242188 -18.046875 5.242188 -14.902344 C 5.242188 -9.0625 6.066406 -4.941406 7.789062 -2.546875 C 9.285156 -0.375 11.757812 0.675781 15.277344 0.675781 C 18.945312 0.675781 22.316406 -0.675781 25.3125 -3.296875 C 25.386719 -0.824219 25.761719 0.523438 26.585938 0.675781 C 27.859375 0.972656 30.40625 0 34.074219 -2.171875 Z M 34.074219 -2.171875 "/></g></g></g><g fill="#dee1eb" fill-opacity="1"><g transform="translate(293.346019, 120.767457)"><g><path d="M 17.300781 -29.503906 C 12.730469 -29.503906 9.734375 -28.15625 6.964844 -25.164062 C 4.34375 -22.316406 2.996094 -18.796875 2.921875 -14.601562 C 2.847656 -10.183594 4.195312 -6.589844 6.890625 -3.667969 C 9.585938 -0.824219 13.03125 0.675781 17.222656 0.675781 C 20.96875 0.675781 24.789062 -0.300781 28.757812 -2.847656 L 26.585938 -6.816406 C 23.964844 -4.492188 21.042969 -3.519531 18.121094 -3.519531 C 15.277344 -3.519531 13.179688 -4.34375 10.933594 -6.441406 C 8.613281 -8.613281 7.488281 -11.234375 7.5625 -14.453125 L 7.5625 -14.753906 L 30.253906 -14.753906 C 30.328125 -19.171875 29.28125 -22.691406 27.183594 -25.3125 C 24.9375 -28.082031 21.71875 -29.503906 17.300781 -29.503906 Z M 8.3125 -18.722656 C 9.808594 -22.839844 13.179688 -25.460938 16.851562 -25.460938 C 21.566406 -25.460938 24.261719 -23.214844 24.789062 -18.722656 Z M 8.3125 -18.722656 "/></g></g></g><g fill="#dee1eb" fill-opacity="1"><g transform="translate(325.920581, 120.767457)"><g><path d="M 24.113281 -4.492188 C 21.042969 -4.117188 19.097656 -3.894531 18.199219 -3.894531 L 7.1875 -3.894531 L 23.890625 -27.484375 L 23.890625 -28.980469 L 2.546875 -28.980469 L 2.546875 -24.339844 C 4.195312 -24.863281 6.664062 -25.085938 9.886719 -25.085938 L 17 -25.085938 L 0.75 -1.871094 L 0.75 0 L 24.113281 0 Z M 24.113281 -4.492188 "/></g></g></g><g fill="#dee1eb" fill-opacity="1"><g transform="translate(350.782097, 120.767457)"><g><path d="M 20.371094 -17.824219 C 16.699219 -17.222656 13.929688 -16.773438 11.90625 -16.550781 C 9.285156 -16.175781 7.113281 -15.203125 5.542969 -13.703125 C 3.820312 -12.058594 2.996094 -9.960938 2.996094 -7.488281 C 2.996094 -2.996094 6.441406 0.75 11.234375 0.75 C 15.128906 0.675781 18.273438 -0.523438 20.59375 -2.996094 C 21.191406 -0.523438 22.765625 0.675781 25.386719 0.675781 C 26.660156 0.675781 28.082031 -0.226562 29.730469 -1.945312 L 29.730469 -5.992188 C 27.707031 -4.492188 26.585938 -3.746094 26.210938 -3.746094 C 25.386719 -3.746094 24.9375 -4.34375 24.9375 -5.46875 L 24.9375 -20.894531 C 24.9375 -24.113281 23.890625 -26.433594 21.867188 -28.007812 C 20.144531 -29.355469 17.824219 -30.03125 14.976562 -29.957031 C 10.558594 -29.878906 7.039062 -28.308594 4.417969 -25.238281 L 4.417969 -20.742188 C 6.515625 -23.515625 11.160156 -26.0625 14.828125 -26.285156 C 18.496094 -26.511719 20.292969 -24.9375 20.371094 -21.566406 Z M 20.59375 -6.738281 C 19.695312 -5.917969 18.347656 -5.167969 16.476562 -4.34375 C 14.601562 -3.59375 13.179688 -3.21875 12.058594 -3.21875 C 9.285156 -3.21875 7.339844 -5.316406 7.339844 -8.085938 C 7.339844 -10.410156 9.734375 -12.355469 13.03125 -12.878906 C 16.550781 -13.40625 19.097656 -13.703125 20.59375 -13.929688 Z M 20.59375 -6.738281 "/></g></g></g></svg>