<svg xmlns="http://www.w3.org/2000/svg" xmlns:xlink="http://www.w3.org/1999/xlink" width="300" zoomAndPan="magnify" viewBox="0 0 224.87999 225" height="300" preserveAspectRatio="xMidYMid meet" version="1.0"><defs><clipPath id="abdefeb941"><path d="M 0 0.0585938 L 224.761719 0.0585938 L 224.761719 224.9375 L 0 224.9375 Z M 0 0.0585938 " clip-rule="nonzero"/></clipPath><clipPath id="ba2017cd20"><path d="M 112.441406 0.0585938 C 50.339844 0.0585938 0 50.402344 0 112.5 C 0 174.597656 50.339844 224.941406 112.441406 224.941406 C 174.539062 224.941406 224.878906 174.597656 224.878906 112.5 C 224.878906 50.402344 174.539062 0.0585938 112.441406 0.0585938 Z M 112.441406 0.0585938 " clip-rule="nonzero"/></clipPath></defs><g clip-path="url(#abdefeb941)"><g clip-path="url(#ba2017cd20)"><path fill="#d9d9d9" d="M 0 0.0585938 L 224.878906 0.0585938 L 224.878906 224.941406 L 0 224.941406 Z M 0 0.0585938 " fill-opacity="1" fill-rule="nonzero"/></g></g><path fill="#3f3423" d="M 53.832031 154.214844 L 95.558594 154.214844 L 95.558594 175.613281 L 73.847656 175.613281 C 73.394531 175.613281 72.957031 175.699219 72.539062 175.871094 C 72.121094 176.042969 71.75 176.289062 71.429688 176.609375 C 71.109375 176.929688 70.859375 177.296875 70.6875 177.714844 C 70.511719 178.136719 70.425781 178.570312 70.425781 179.023438 C 70.425781 179.476562 70.511719 179.914062 70.6875 180.332031 C 70.859375 180.75 71.109375 181.121094 71.429688 181.441406 C 71.75 181.761719 72.121094 182.007812 72.539062 182.179688 C 72.957031 182.351562 73.394531 182.4375 73.847656 182.433594 L 154.484375 182.433594 C 154.9375 182.4375 155.375 182.351562 155.792969 182.179688 C 156.210938 182.007812 156.582031 181.761719 156.902344 181.441406 C 157.226562 181.121094 157.472656 180.75 157.644531 180.332031 C 157.820312 179.914062 157.90625 179.476562 157.90625 179.023438 C 157.90625 178.570312 157.820312 178.136719 157.644531 177.714844 C 157.472656 177.296875 157.226562 176.929688 156.902344 176.609375 C 156.582031 176.289062 156.210938 176.042969 155.792969 175.871094 C 155.375 175.699219 154.9375 175.613281 154.484375 175.613281 L 132.773438 175.613281 L 132.773438 154.214844 L 174.5 154.214844 C 175.546875 154.214844 176.582031 154.121094 177.609375 153.929688 C 178.636719 153.742188 179.640625 153.460938 180.617188 153.089844 C 181.59375 152.714844 182.527344 152.257812 183.421875 151.714844 C 184.316406 151.175781 185.152344 150.554688 185.933594 149.859375 C 186.714844 149.164062 187.425781 148.40625 188.066406 147.582031 C 188.707031 146.757812 189.269531 145.878906 189.753906 144.953125 C 190.234375 144.027344 190.628906 143.0625 190.9375 142.0625 C 191.242188 141.066406 191.457031 140.046875 191.578125 139.007812 L 36.753906 139.007812 C 36.875 140.046875 37.089844 141.066406 37.394531 142.0625 C 37.703125 143.0625 38.097656 144.027344 38.578125 144.953125 C 39.0625 145.878906 39.625 146.757812 40.265625 147.582031 C 40.910156 148.40625 41.621094 149.164062 42.402344 149.859375 C 43.179688 150.554688 44.019531 151.175781 44.910156 151.714844 C 45.804688 152.257812 46.738281 152.714844 47.714844 153.089844 C 48.691406 153.460938 49.695312 153.742188 50.722656 153.929688 C 51.75 154.117188 52.785156 154.214844 53.832031 154.214844 Z M 53.832031 154.214844 " fill-opacity="1" fill-rule="nonzero"/><path fill="#3f3423" d="M 174.5 42.558594 L 53.832031 42.558594 C 53.269531 42.558594 52.707031 42.585938 52.144531 42.640625 C 51.585938 42.695312 51.027344 42.777344 50.476562 42.890625 C 49.921875 43 49.378906 43.136719 48.839844 43.300781 C 48.300781 43.460938 47.769531 43.652344 47.25 43.867188 C 46.730469 44.082031 46.21875 44.324219 45.722656 44.589844 C 45.226562 44.855469 44.742188 45.144531 44.273438 45.457031 C 43.808594 45.769531 43.355469 46.105469 42.917969 46.464844 C 42.484375 46.820312 42.066406 47.199219 41.667969 47.597656 C 41.269531 47.996094 40.890625 48.410156 40.535156 48.847656 C 40.175781 49.28125 39.84375 49.734375 39.53125 50.203125 C 39.214844 50.671875 38.925781 51.15625 38.660156 51.652344 C 38.394531 52.148438 38.15625 52.65625 37.941406 53.175781 C 37.722656 53.699219 37.535156 54.226562 37.371094 54.765625 C 37.207031 55.304688 37.070312 55.851562 36.960938 56.402344 C 36.851562 56.957031 36.769531 57.511719 36.714844 58.074219 C 36.65625 58.632812 36.628906 59.195312 36.628906 59.761719 L 36.628906 132.1875 L 191.703125 132.1875 L 191.703125 59.761719 C 191.703125 59.195312 191.675781 58.632812 191.621094 58.074219 C 191.5625 57.511719 191.480469 56.957031 191.371094 56.402344 C 191.261719 55.851562 191.125 55.304688 190.960938 54.765625 C 190.796875 54.226562 190.609375 53.699219 190.394531 53.175781 C 190.175781 52.65625 189.9375 52.148438 189.671875 51.652344 C 189.40625 51.15625 189.117188 50.671875 188.804688 50.203125 C 188.492188 49.734375 188.15625 49.28125 187.796875 48.847656 C 187.441406 48.410156 187.0625 47.996094 186.664062 47.597656 C 186.265625 47.199219 185.847656 46.820312 185.414062 46.464844 C 184.976562 46.105469 184.527344 45.769531 184.058594 45.457031 C 183.589844 45.144531 183.105469 44.855469 182.609375 44.589844 C 182.113281 44.324219 181.605469 44.082031 181.085938 43.867188 C 180.5625 43.652344 180.035156 43.460938 179.496094 43.300781 C 178.957031 43.136719 178.410156 43 177.859375 42.890625 C 177.304688 42.777344 176.75 42.695312 176.1875 42.640625 C 175.628906 42.585938 175.066406 42.558594 174.5 42.558594 Z M 95.292969 104.089844 C 95.546875 104.464844 95.714844 104.875 95.804688 105.320312 C 95.890625 105.761719 95.890625 106.207031 95.804688 106.652344 C 95.714844 107.09375 95.542969 107.503906 95.292969 107.882812 C 95.042969 108.257812 94.726562 108.570312 94.351562 108.820312 C 93.972656 109.074219 93.5625 109.242188 93.121094 109.332031 C 92.675781 109.417969 92.230469 109.417969 91.789062 109.328125 C 91.34375 109.238281 90.933594 109.070312 90.558594 108.816406 C 90.183594 108.566406 89.867188 108.25 89.617188 107.875 L 77.210938 89.265625 C 76.832031 88.691406 76.640625 88.0625 76.640625 87.371094 C 76.640625 86.683594 76.832031 86.054688 77.210938 85.480469 L 89.617188 66.871094 C 89.871094 66.496094 90.183594 66.179688 90.558594 65.929688 C 90.933594 65.679688 91.34375 65.507812 91.789062 65.421875 C 92.230469 65.332031 92.675781 65.332031 93.117188 65.417969 C 93.5625 65.507812 93.972656 65.675781 94.347656 65.929688 C 94.722656 66.179688 95.039062 66.492188 95.289062 66.867188 C 95.542969 67.242188 95.710938 67.652344 95.800781 68.097656 C 95.890625 68.539062 95.890625 68.984375 95.800781 69.425781 C 95.714844 69.871094 95.542969 70.28125 95.292969 70.65625 L 84.152344 87.371094 Z M 125.175781 63.578125 L 109.667969 113.203125 C 109.535156 113.636719 109.324219 114.027344 109.03125 114.375 C 108.742188 114.722656 108.398438 115 107.996094 115.210938 C 107.59375 115.421875 107.167969 115.550781 106.71875 115.589844 C 106.265625 115.632812 105.824219 115.582031 105.390625 115.449219 C 104.960938 115.3125 104.570312 115.101562 104.222656 114.808594 C 103.875 114.519531 103.597656 114.171875 103.386719 113.773438 C 103.175781 113.371094 103.050781 112.945312 103.011719 112.492188 C 102.972656 112.039062 103.019531 111.597656 103.15625 111.167969 L 118.664062 61.542969 C 118.796875 61.109375 119.011719 60.71875 119.300781 60.371094 C 119.589844 60.023438 119.933594 59.746094 120.335938 59.535156 C 120.738281 59.324219 121.164062 59.195312 121.613281 59.15625 C 122.066406 59.113281 122.507812 59.164062 122.941406 59.296875 C 123.371094 59.433594 123.761719 59.644531 124.109375 59.9375 C 124.457031 60.226562 124.738281 60.574219 124.945312 60.972656 C 125.15625 61.375 125.28125 61.800781 125.320312 62.253906 C 125.359375 62.707031 125.3125 63.148438 125.175781 63.578125 Z M 151.121094 89.265625 L 138.714844 107.875 C 138.464844 108.25 138.148438 108.5625 137.773438 108.816406 C 137.398438 109.066406 136.988281 109.238281 136.542969 109.324219 C 136.101562 109.414062 135.65625 109.414062 135.214844 109.324219 C 134.769531 109.238281 134.359375 109.066406 133.984375 108.816406 C 133.609375 108.566406 133.296875 108.253906 133.042969 107.878906 C 132.792969 107.5 132.621094 107.09375 132.53125 106.648438 C 132.445312 106.207031 132.445312 105.761719 132.53125 105.320312 C 132.617188 104.875 132.789062 104.464844 133.039062 104.089844 L 144.179688 87.371094 L 133.039062 70.65625 C 132.789062 70.28125 132.621094 69.871094 132.53125 69.425781 C 132.445312 68.984375 132.445312 68.539062 132.535156 68.097656 C 132.621094 67.65625 132.792969 67.246094 133.042969 66.871094 C 133.296875 66.496094 133.609375 66.179688 133.984375 65.929688 C 134.363281 65.679688 134.773438 65.511719 135.214844 65.421875 C 135.660156 65.335938 136.101562 65.335938 136.542969 65.421875 C 136.988281 65.511719 137.398438 65.679688 137.773438 65.929688 C 138.148438 66.183594 138.464844 66.496094 138.714844 66.871094 L 151.121094 85.480469 C 151.5 86.054688 151.691406 86.683594 151.691406 87.371094 C 151.691406 88.0625 151.5 88.691406 151.121094 89.265625 Z M 151.121094 89.265625 " fill-opacity="1" fill-rule="nonzero"/></svg>